<?xml version="1.0" encoding="UTF-8"?>
<svg xmlns="http://www.w3.org/2000/svg" xmlns:xlink="http://www.w3.org/1999/xlink" width="600px" height="191px" viewBox="0 0 301 96" version="1.1">
<g id="surface1">
<path style=" stroke:none;fill-rule:nonzero;fill:rgb(53.333336%,53.333336%,53.333336%);fill-opacity:1;" d="M 300.949219 59.511719 C 300.949219 39.414062 284.6875 23.121094 264.628906 23.121094 C 244.570312 23.121094 228.308594 39.414062 228.308594 59.511719 C 228.308594 79.605469 244.570312 95.898438 264.628906 95.898438 C 284.6875 95.898438 300.949219 79.605469 300.949219 59.511719 Z M 300.949219 59.511719 "/>
<path style=" stroke:none;fill-rule:nonzero;fill:rgb(100%,100%,100%);fill-opacity:1;" d="M 264.628906 80.972656 C 276.46875 80.972656 286.050781 71.371094 286.050781 59.511719 C 286.050781 47.648438 276.46875 38.046875 264.628906 38.046875 C 252.789062 38.046875 243.207031 47.648438 243.207031 59.511719 C 243.207031 71.371094 252.789062 80.972656 264.628906 80.972656 Z M 264.628906 80.972656 "/>
<path style=" stroke:none;fill-rule:nonzero;fill:rgb(53.333336%,53.333336%,53.333336%);fill-opacity:1;" d="M 223.945312 59.511719 C 223.945312 39.414062 207.683594 23.121094 187.625 23.121094 C 167.5625 23.121094 151.300781 39.414062 151.300781 59.511719 C 151.300781 79.605469 167.5625 95.898438 187.625 95.898438 C 207.683594 95.898438 223.945312 79.605469 223.945312 59.511719 Z M 223.945312 59.511719 "/>
<path style=" stroke:none;fill-rule:nonzero;fill:rgb(100%,100%,100%);fill-opacity:1;" d="M 187.625 80.972656 C 199.460938 80.972656 209.042969 71.371094 209.042969 59.511719 C 209.042969 47.648438 199.460938 38.046875 187.625 38.046875 C 175.785156 38.046875 166.203125 47.648438 166.203125 59.511719 C 166.203125 71.371094 175.785156 80.972656 187.625 80.972656 Z M 187.625 80.972656 "/>
<path style=" stroke:none;fill-rule:nonzero;fill:rgb(53.333336%,53.333336%,53.333336%);fill-opacity:1;" d="M 147.941406 59.207031 L 147.941406 59.511719 C 147.941406 79.613281 131.6875 95.898438 111.621094 95.898438 C 91.554688 95.898438 75.300781 79.613281 75.300781 59.511719 C 75.300781 39.40625 91.554688 23.121094 111.621094 23.121094 C 119.847656 23.121094 127.421875 25.886719 133.542969 30.457031 L 133.542969 7.238281 C 133.535156 5.316406 134.292969 3.46875 135.652344 2.109375 C 137.007812 0.75 138.847656 -0.0078125 140.769531 0 C 144.730469 0 147.992188 3.265625 147.992188 7.238281 L 147.992188 58.855469 C 147.992188 58.957031 147.992188 59.109375 147.941406 59.207031 Z M 147.941406 59.207031 "/>
<path style=" stroke:none;fill-rule:nonzero;fill:rgb(100%,100%,100%);fill-opacity:1;" d="M 133.042969 59.511719 C 133.042969 47.65625 123.453125 38.046875 111.621094 38.046875 C 99.789062 38.046875 90.199219 47.65625 90.199219 59.511719 C 90.199219 71.363281 99.789062 80.972656 111.621094 80.972656 C 123.453125 80.972656 133.042969 71.363281 133.042969 59.511719 Z M 133.042969 59.511719 "/>
<path style=" stroke:none;fill-rule:nonzero;fill:rgb(61.176473%,34.117648%,53.725493%);fill-opacity:1;" d="M 72.640625 59.410156 C 72.640625 39.3125 56.378906 23.019531 36.320312 23.019531 C 16.261719 23.019531 0 39.3125 0 59.410156 C 0 79.507812 16.261719 95.800781 36.320312 95.800781 C 56.378906 95.800781 72.640625 79.507812 72.640625 59.410156 Z M 72.640625 59.410156 "/>
<path style=" stroke:none;fill-rule:nonzero;fill:rgb(100%,100%,100%);fill-opacity:1;" d="M 57.390625 59.558594 C 57.390625 47.707031 47.800781 38.097656 35.96875 38.097656 C 24.140625 38.097656 14.546875 47.707031 14.546875 59.558594 C 14.546875 71.414062 24.140625 81.023438 35.96875 81.023438 C 47.800781 81.023438 57.390625 71.414062 57.390625 59.558594 Z M 57.390625 59.558594 "/>
</g>
</svg>
